<?xml version="1.0" encoding="UTF-8"?>
<svg width="512" height="512" viewBox="0 0 512 512" xmlns="http://www.w3.org/2000/svg">
  <defs>
    <linearGradient id="goldGradient" x1="0%" y1="0%" x2="100%" y2="100%">
      <stop offset="0%" stop-color="#f9e076" />
      <stop offset="50%" stop-color="#e4c155" />
      <stop offset="100%" stop-color="#b8860b" />
    </linearGradient>
    <filter id="softShadow" x="-20%" y="-20%" width="140%" height="140%">
      <feDropShadow dx="0" dy="8" stdDeviation="10" flood-color="#000000" flood-opacity="0.55"/>
    </filter>
  </defs>
  <rect width="512" height="512" rx="60" ry="60" fill="#151515"/>
  <!-- Feather stylized -->
  <path d="M320 80C260 120 220 190 210 250c30-20 70-45 110-55-20 25-45 55-80 80-15 12-35 25-55 35 5 10 10 18 18 26 60-25 115-76 140-130 10-22 16-55 12-88-10-5-20-8-35-8z" fill="url(#goldGradient)" filter="url(#softShadow)"/>
  <!-- Letter G -->
  <path d="M190 180c-50 25-80 70-80 130 0 80 55 140 140 140 55 0 95-25 120-70l-45-22c-15 28-40 43-75 43-55 0-90-38-90-93 0-58 40-97 95-97 35 0 60 15 75 40h-65v48h125c2-10 3-20 3-30 0-85-55-140-138-140-24 0-46 5-65 14z" fill="url(#goldGradient)" filter="url(#softShadow)"/>
  <!-- Text GRAPHOS -->
  <text x="50%" y="440" text-anchor="middle" font-family="'Times New Roman', 'Georgia', serif" font-size="80" fill="url(#goldGradient)" filter="url(#softShadow)">
    GRAPHOS
  </text>
</svg>
